<?xml version="1.0" standalone="no"?>
<!DOCTYPE svg PUBLIC "-//W3C//DTD SVG 20010904//EN"
 "http://www.w3.org/TR/2001/REC-SVG-20010904/DTD/svg10.dtd">
<svg version="1.0" xmlns="http://www.w3.org/2000/svg"
 width="1024.000000pt" height="1024.000000pt" viewBox="0 0 1024.000000 1024.000000"
 preserveAspectRatio="xMidYMid meet">
<metadata>
Created by potrace 1.14, written by Peter Selinger 2001-2017
</metadata>
<g transform="translate(0.000000,1024.000000) scale(0.100000,-0.100000)"
fill="#000000" stroke="none">
<path d="M0 5120 l0 -5120 5120 0 5120 0 0 5120 0 5120 -5120 0 -5120 0 0
-5120z m5240 2800 c157 -17 276 -67 397 -169 142 -119 206 -259 224 -485 10
-138 17 -178 44 -289 16 -64 16 -72 0 -119 -16 -49 -16 -52 6 -102 27 -63 36
-167 19 -235 -6 -27 -30 -75 -51 -105 l-39 -55 2 -758 3 -758 33 -70 c18 -38
48 -102 67 -141 19 -38 35 -74 35 -78 0 -4 -13 -26 -28 -49 -46 -67 -99 -160
-107 -187 -7 -24 -50 -115 -102 -215 -14 -27 -39 -77 -55 -110 -17 -33 -38
-71 -48 -85 -10 -14 -37 -61 -60 -105 -70 -132 -114 -216 -160 -300 -23 -44
-98 -190 -164 -324 l-122 -245 -61 105 c-33 57 -129 237 -213 399 -84 162
-169 324 -190 360 -21 36 -116 219 -210 407 l-173 341 33 79 c17 43 48 116 68
163 l35 85 -1 748 0 747 -27 31 c-63 76 -90 171 -79 283 5 53 11 74 29 90 22
20 22 23 8 71 -8 28 -17 68 -20 90 -3 22 -9 45 -15 52 -5 7 -5 12 2 15 12 4
65 234 75 328 10 104 122 318 206 396 56 52 180 130 251 158 113 44 215 54
388 36z"/>
<path d="M4945 7787 c-142 -48 -219 -104 -310 -224 -78 -103 -104 -175 -112
-311 -5 -74 -9 -95 -24 -102 -30 -16 -59 -91 -59 -152 0 -58 20 -99 78 -161
l27 -28 -47 -42 c-25 -23 -51 -52 -57 -64 -30 -60 7 -184 70 -237 l29 -24 1
-816 c2 -755 0 -818 -15 -835 -17 -18 -67 -139 -89 -212 -10 -34 -5 -46 110
-275 146 -290 488 -940 540 -1026 21 -34 43 -62 48 -61 6 0 21 27 33 59 34 84
61 139 152 309 45 83 92 173 105 202 13 29 48 94 78 145 29 51 84 155 122 231
83 169 140 270 183 324 17 22 32 48 32 57 0 9 -30 74 -66 144 l-66 127 4 130
c1 72 1 439 -1 816 l-3 686 31 11 c25 9 37 23 56 67 43 97 32 156 -44 230 -23
21 -41 42 -41 45 0 4 17 25 38 47 37 39 62 97 62 144 -1 33 -32 100 -59 123
-19 17 -21 29 -21 121 0 203 -85 367 -246 474 -106 71 -180 92 -339 97 -116 4
-137 2 -200 -19z m70 -207 c26 -21 18 -76 -19 -132 -39 -61 -101 -123 -132
-132 -24 -7 -62 19 -94 64 -19 26 -19 32 -7 62 20 47 64 97 117 130 36 23 53
28 83 25 21 -3 44 -11 52 -17z m-50 -590 l270 0 -3 -44 c-2 -25 -10 -47 -16
-49 -11 -4 -515 -11 -568 -8 -20 1 -40 55 -32 88 6 23 10 25 43 19 20 -3 158
-6 306 -6z m243 -322 c-17 -18 -37 -43 -46 -55 -14 -23 -16 -23 -268 -23
l-253 0 -16 30 c-8 16 -15 35 -15 43 0 35 19 37 326 37 l302 0 -30 -32z m-346
-1123 c2 -552 0 -855 -7 -855 -5 0 -35 27 -66 60 -47 50 -57 68 -63 107 -3 25
-6 383 -6 794 l0 749 70 0 70 0 2 -855z m185 815 c-2 -24 -17 -15 -17 11 0 11
4 18 9 14 6 -3 9 -14 8 -25z m8 -1610 c-3 -5 -11 -10 -16 -10 -6 0 -7 5 -4 10
3 6 11 10 16 10 6 0 7 -4 4 -10z m128 -217 c26 -38 66 -90 89 -116 25 -29 38
-51 32 -55 -6 -4 -21 -41 -33 -82 -13 -41 -32 -102 -43 -135 -11 -33 -20 -68
-21 -78 -1 -20 -16 -24 -113 -30 -49 -3 -89 -12 -129 -31 -32 -14 -58 -25 -59
-24 -1 2 -22 46 -48 98 -142 288 -198 409 -198 425 0 9 9 19 20 22 10 3 26 16
35 29 8 13 21 24 28 24 7 0 49 -45 95 -100 45 -55 86 -100 91 -100 5 0 27 21
48 46 37 45 154 174 158 174 1 0 23 -30 48 -67z m377 17 c25 -39 29 -53 21
-67 -10 -17 -10 -17 -11 0 0 9 -11 35 -25 57 -23 36 -31 60 -21 60 2 0 18 -22
36 -50z m-224 -526 c13 -3 24 -10 24 -15 0 -15 -24 -10 -55 12 -16 12 -22 18
-12 15 11 -3 30 -9 43 -12z"/>
</g>
</svg>
